<svg xmlns="http://www.w3.org/2000/svg" width="24" height="24" viewBox="0 0 24 24">
    <defs>
        <filter id="8zws4n65xa">
            <feColorMatrix in="SourceGraphic" values="0 0 0 0 1.000000 0 0 0 0 1.000000 0 0 0 0 1.000000 0 0 0 1.000000 0"/>
        </filter>
        <filter id="930v4gq8tb" width="166.7%" height="170.8%" x="-33.3%" y="-33.3%" filterUnits="objectBoundingBox">
            <feOffset in="SourceAlpha" result="shadowOffsetOuter1"/>
            <feGaussianBlur in="shadowOffsetOuter1" result="shadowBlurOuter1" stdDeviation="2"/>
            <feColorMatrix in="shadowBlurOuter1" result="shadowMatrixOuter1" values="0 0 0 0 0 0 0 0 0 0 0 0 0 0 0 0 0 0 0.391225962 0"/>
            <feMerge>
                <feMergeNode in="shadowMatrixOuter1"/>
                <feMergeNode in="SourceGraphic"/>
            </feMerge>
        </filter>
    </defs>
    <g fill="none" fill-rule="evenodd">
        <g>
            <g filter="url(#8zws4n65xa)" transform="translate(-203 -685) translate(195 379)">
                <g filter="url(#930v4gq8tb)" transform="translate(8 306)">
                    <g fill="#4D58F9" fill-rule="nonzero">
                        <path d="M5.372 23.023c-.263 0-.524-.082-.747-.243-.415-.301-.61-.818-.496-1.317l1.544-6.802L.437 10.07c-.385-.336-.532-.868-.374-1.355.158-.486.588-.83 1.097-.877l6.928-.629 2.739-6.41c.202-.47.662-.775 1.173-.775s.971.304 1.173.774l2.74 6.411 6.926.63c.51.045.94.39 1.098.876.158.486.012 1.02-.373 1.355l-5.236 4.592 1.544 6.8c.113.5-.08 1.018-.496 1.318-.414.3-.966.323-1.402.06L12 19.27l-5.974 3.573c-.202.12-.427.18-.654.18z" transform="translate(0 .667)"/>
                    </g>
                </g>
            </g>
        </g>
    </g>
</svg>
