<svg xmlns="http://www.w3.org/2000/svg" width="24" height="24" viewBox="0 0 24 24" fill="white">
    <g>
        <g>
            <g>
                <g transform="translate(-158 -998) translate(141 611) translate(1 81)">
                    <g>
                        <g>
                            <path d="M5.372 23.023c-.263 0-.524-.082-.747-.243-.415-.301-.61-.818-.496-1.317l1.544-6.802L.437 10.07c-.385-.336-.532-.868-.374-1.355.158-.486.588-.83 1.097-.877l6.928-.629 2.739-6.41c.202-.47.662-.775 1.173-.775s.971.304 1.173.774l2.74 6.411 6.926.63c.51.045.94.39 1.098.876.158.486.012 1.02-.373 1.355l-5.236 4.592 1.544 6.8c.113.5-.08 1.018-.496 1.318-.414.3-.966.323-1.402.06L12 19.27l-5.974 3.573c-.202.12-.427.18-.654.18zM12 17.732c.227 0 .452.06.654.18l5.638 3.373-1.457-6.42c-.104-.456.051-.933.404-1.243l4.944-4.336-6.541-.594c-.471-.043-.876-.339-1.06-.773L12 1.87 9.415 7.92c-.182.431-.587.727-1.057.77l-6.542.594L6.76 13.62c.354.31.509.787.404 1.245l-1.456 6.419 5.638-3.371c.202-.12.427-.181.654-.181z" transform="translate(16 306) translate(0 .667)"/>
                        </g>
                    </g>
                </g>
            </g>
        </g>
    </g>
</svg>
